<svg xmlns="http://www.w3.org/2000/svg" xmlns:xlink="http://www.w3.org/1999/xlink" width="1080" zoomAndPan="magnify" viewBox="0 0 810 809.999993" height="1080" preserveAspectRatio="xMidYMid meet" version="1.0"><defs><filter x="0%" y="0%" width="100%" height="100%" id="cfd2b0d8e9"><feColorMatrix values="0 0 0 0 1 0 0 0 0 1 0 0 0 0 1 0 0 0 1 0" color-interpolation-filters="sRGB"/></filter><g/><clipPath id="6d16c9a947"><path d="M 56.953125 0 L 753.046875 0 L 753.046875 810 L 56.953125 810 Z M 56.953125 0 " clip-rule="nonzero"/></clipPath><clipPath id="28c451a0fe"><path d="M 405 0 L 753.046875 202.5 L 753.046875 607.5 L 405 810 L 56.953125 607.5 L 56.953125 202.5 L 405 0 " clip-rule="nonzero"/></clipPath><clipPath id="29f0aa30eb"><path d="M 215.007812 124.867188 L 596.71875 124.867188 L 596.71875 125.175781 L 215.007812 125.175781 Z M 215.007812 124.867188 " clip-rule="nonzero"/></clipPath><mask id="0bf5a74818"><g filter="url(#cfd2b0d8e9)"><rect x="-81" width="972" fill="#000000" y="-80.999999" height="971.999992" fill-opacity="0.2471"/></g></mask><clipPath id="3446e2d351"><path d="M 0.0078125 0.867188 L 381.71875 0.867188 L 381.71875 1.175781 L 0.0078125 1.175781 Z M 0.0078125 0.867188 " clip-rule="nonzero"/></clipPath><clipPath id="617c7d4a56"><rect x="0" width="382" y="0" height="2"/></clipPath><clipPath id="c357483e60"><path d="M 215.007812 199.546875 L 596.71875 199.546875 L 596.71875 199.855469 L 215.007812 199.855469 Z M 215.007812 199.546875 " clip-rule="nonzero"/></clipPath><mask id="6c3f71a653"><g filter="url(#cfd2b0d8e9)"><rect x="-81" width="972" fill="#000000" y="-80.999999" height="971.999992" fill-opacity="0.2471"/></g></mask><clipPath id="f937f6be09"><path d="M 0.0078125 0.546875 L 381.71875 0.546875 L 381.71875 0.855469 L 0.0078125 0.855469 Z M 0.0078125 0.546875 " clip-rule="nonzero"/></clipPath><clipPath id="6fe76af1df"><rect x="0" width="382" y="0" height="1"/></clipPath><clipPath id="3b12128fbc"><path d="M 215.007812 274.226562 L 596.71875 274.226562 L 596.71875 274.535156 L 215.007812 274.535156 Z M 215.007812 274.226562 " clip-rule="nonzero"/></clipPath><mask id="4c6114e24b"><g filter="url(#cfd2b0d8e9)"><rect x="-81" width="972" fill="#000000" y="-80.999999" height="971.999992" fill-opacity="0.2471"/></g></mask><clipPath id="bc0d94ae07"><path d="M 0.0078125 0.226562 L 381.71875 0.226562 L 381.71875 0.535156 L 0.0078125 0.535156 Z M 0.0078125 0.226562 " clip-rule="nonzero"/></clipPath><clipPath id="88d243e834"><rect x="0" width="382" y="0" height="1"/></clipPath><clipPath id="1027711e83"><path d="M 215.007812 348.90625 L 596.71875 348.90625 L 596.71875 349.214844 L 215.007812 349.214844 Z M 215.007812 348.90625 " clip-rule="nonzero"/></clipPath><mask id="91e90f2996"><g filter="url(#cfd2b0d8e9)"><rect x="-81" width="972" fill="#000000" y="-80.999999" height="971.999992" fill-opacity="0.2471"/></g></mask><clipPath id="f791162d7a"><path d="M 0.0078125 0.90625 L 381.71875 0.90625 L 381.71875 1.214844 L 0.0078125 1.214844 Z M 0.0078125 0.90625 " clip-rule="nonzero"/></clipPath><clipPath id="56d141b0d5"><rect x="0" width="382" y="0" height="2"/></clipPath><clipPath id="d61ec2f285"><path d="M 215.007812 423.585938 L 596.71875 423.585938 L 596.71875 423.894531 L 215.007812 423.894531 Z M 215.007812 423.585938 " clip-rule="nonzero"/></clipPath><mask id="b4130756c0"><g filter="url(#cfd2b0d8e9)"><rect x="-81" width="972" fill="#000000" y="-80.999999" height="971.999992" fill-opacity="0.2471"/></g></mask><clipPath id="58f1f57355"><path d="M 0.0078125 0.585938 L 381.71875 0.585938 L 381.71875 0.894531 L 0.0078125 0.894531 Z M 0.0078125 0.585938 " clip-rule="nonzero"/></clipPath><clipPath id="9dd2d6a4c8"><rect x="0" width="382" y="0" height="1"/></clipPath><clipPath id="2a033ef6ae"><path d="M 215.007812 498.265625 L 596.71875 498.265625 L 596.71875 498.574219 L 215.007812 498.574219 Z M 215.007812 498.265625 " clip-rule="nonzero"/></clipPath><mask id="ed73e7cb49"><g filter="url(#cfd2b0d8e9)"><rect x="-81" width="972" fill="#000000" y="-80.999999" height="971.999992" fill-opacity="0.6"/></g></mask><clipPath id="af2a340006"><path d="M 0.0078125 0.265625 L 381.71875 0.265625 L 381.71875 0.574219 L 0.0078125 0.574219 Z M 0.0078125 0.265625 " clip-rule="nonzero"/></clipPath><clipPath id="2a6c5cf81f"><rect x="0" width="382" y="0" height="1"/></clipPath><clipPath id="06e1b66b40"><path d="M 215 423.179688 L 284 423.179688 L 284 498.6875 L 215 498.6875 Z M 215 423.179688 " clip-rule="nonzero"/></clipPath><clipPath id="23b3c54bbc"><path d="M 215.007812 498.421875 L 215.007812 433.203125 C 214.96875 430.625 215.960938 428.140625 217.769531 426.300781 C 219.578125 424.464844 222.050781 423.429688 224.628906 423.429688 L 274.097656 423.429688 C 276.675781 423.429688 279.144531 424.464844 280.953125 426.300781 C 282.761719 428.140625 283.757812 430.625 283.714844 433.203125 L 283.714844 498.421875 L 215.007812 498.421875 " clip-rule="nonzero"/></clipPath><clipPath id="0b5b17c913"><path d="M 293 348.601562 L 362 348.601562 L 362 498.6875 L 293 498.6875 Z M 293 348.601562 " clip-rule="nonzero"/></clipPath><clipPath id="73a263601c"><path d="M 293.257812 498.421875 L 293.257812 358.523438 C 293.257812 353.210938 297.566406 348.90625 302.878906 348.90625 L 352.347656 348.90625 C 357.660156 348.90625 361.96875 353.210938 361.96875 358.523438 L 361.96875 498.421875 L 293.257812 498.421875 " clip-rule="nonzero"/></clipPath><clipPath id="015954c17c"><path d="M 371.28125 274.023438 L 440.289062 274.023438 L 440.289062 498.6875 L 371.28125 498.6875 Z M 371.28125 274.023438 " clip-rule="nonzero"/></clipPath><clipPath id="5cad0bc3fd"><path d="M 371.507812 498.421875 L 371.507812 283.84375 C 371.507812 278.53125 375.816406 274.226562 381.128906 274.226562 L 430.597656 274.226562 C 435.910156 274.226562 440.21875 278.53125 440.21875 283.84375 L 440.21875 498.421875 L 371.507812 498.421875 " clip-rule="nonzero"/></clipPath><clipPath id="1c7bd22d18"><path d="M 449.574219 199.445312 L 518.582031 199.445312 L 518.582031 498.6875 L 449.574219 498.6875 Z M 449.574219 199.445312 " clip-rule="nonzero"/></clipPath><clipPath id="4535973040"><path d="M 449.761719 498.421875 L 449.761719 209.164062 C 449.761719 203.851562 454.066406 199.546875 459.378906 199.546875 L 508.847656 199.546875 C 514.160156 199.546875 518.46875 203.851562 518.46875 209.164062 L 518.46875 498.421875 L 449.761719 498.421875 " clip-rule="nonzero"/></clipPath><clipPath id="de0d8e8f59"><path d="M 528 124.867188 L 596.875 124.867188 L 596.875 498.6875 L 528 498.6875 Z M 528 124.867188 " clip-rule="nonzero"/></clipPath><clipPath id="48037d14be"><path d="M 528.011719 498.421875 L 528.011719 134.484375 C 528.011719 131.933594 529.023438 129.488281 530.828125 127.683594 C 532.632812 125.878906 535.078125 124.867188 537.628906 124.867188 L 587.097656 124.867188 C 592.410156 124.867188 596.71875 129.171875 596.71875 134.484375 L 596.71875 498.421875 L 528.011719 498.421875 " clip-rule="nonzero"/></clipPath><clipPath id="bc13ab90b5"><path d="M 215.007812 460.925781 L 283.714844 460.925781 L 283.714844 498.421875 L 215.007812 498.421875 Z M 215.007812 460.925781 " clip-rule="nonzero"/></clipPath><clipPath id="3eb2e25238"><path d="M 293.257812 378.808594 L 361.96875 378.808594 L 361.96875 498.421875 L 293.257812 498.421875 Z M 293.257812 378.808594 " clip-rule="nonzero"/></clipPath><clipPath id="473203c4a2"><path d="M 371.507812 311.589844 L 440.21875 311.589844 L 440.21875 498.421875 L 371.507812 498.421875 Z M 371.507812 311.589844 " clip-rule="nonzero"/></clipPath><clipPath id="586f19c9be"><path d="M 449.761719 259.320312 L 518.46875 259.320312 L 518.46875 498.421875 L 449.761719 498.421875 Z M 449.761719 259.320312 " clip-rule="nonzero"/></clipPath><clipPath id="17259e08e1"><path d="M 528.011719 184.632812 L 596.71875 184.632812 L 596.71875 498.421875 L 528.011719 498.421875 Z M 528.011719 184.632812 " clip-rule="nonzero"/></clipPath><clipPath id="8d313919d4"><path d="M 293.257812 438.613281 L 361.96875 438.613281 L 361.96875 498.421875 L 293.257812 498.421875 Z M 293.257812 438.613281 " clip-rule="nonzero"/></clipPath><clipPath id="372b3e2129"><path d="M 371.507812 386.324219 L 440.21875 386.324219 L 440.21875 498.421875 L 371.507812 498.421875 Z M 371.507812 386.324219 " clip-rule="nonzero"/></clipPath><clipPath id="537fb5a6ec"><path d="M 449.761719 363.925781 L 518.46875 363.925781 L 518.46875 498.421875 L 449.761719 498.421875 Z M 449.761719 363.925781 " clip-rule="nonzero"/></clipPath><clipPath id="4ae5620cee"><path d="M 528.011719 334.054688 L 596.71875 334.054688 L 596.71875 498.421875 L 528.011719 498.421875 Z M 528.011719 334.054688 " clip-rule="nonzero"/></clipPath></defs><rect x="-81" width="972" fill="#ffffff" y="-80.999999" height="971.999992" fill-opacity="1"/><rect x="-81" width="972" fill="#ffffff" y="-80.999999" height="971.999992" fill-opacity="1"/><rect x="-81" width="972" fill="#ffffff" y="-80.999999" height="971.999992" fill-opacity="1"/><g fill="#3c8c9e" fill-opacity="1"><g transform="translate(103.637551, 596.724504)"><g/></g></g><g clip-path="url(#6d16c9a947)"><g clip-path="url(#28c451a0fe)"><path fill="#0083c4" d="M 56.953125 0 L 753.046875 0 L 753.046875 810 L 56.953125 810 Z M 56.953125 0 " fill-opacity="1" fill-rule="nonzero"/></g></g><g fill="#0083c4" fill-opacity="1"><g transform="translate(221.034295, 512.593214)"><g><path d="M 4.96875 0 L 0.765625 0 L 0.765625 -7.078125 L 4.96875 -7.078125 L 4.96875 -5.53125 L 2.671875 -5.53125 L 2.671875 -4.421875 L 4.796875 -4.421875 L 4.796875 -2.890625 L 2.671875 -2.890625 L 2.671875 -1.5625 L 4.96875 -1.5625 Z M 4.96875 0 "/></g></g><g transform="translate(226.469088, 512.593214)"><g><path d="M 2.546875 0 L 0.65625 0 L 0.65625 -7.53125 L 2.546875 -7.53125 Z M 2.546875 0 "/></g></g><g transform="translate(229.670007, 512.593214)"><g><path d="M 3.296875 0.09375 C 2.390625 0.09375 1.679688 -0.144531 1.171875 -0.625 C 0.671875 -1.113281 0.421875 -1.804688 0.421875 -2.703125 C 0.421875 -3.628906 0.648438 -4.335938 1.109375 -4.828125 C 1.578125 -5.328125 2.25 -5.578125 3.125 -5.578125 C 3.945312 -5.578125 4.582031 -5.359375 5.03125 -4.921875 C 5.476562 -4.492188 5.703125 -3.878906 5.703125 -3.078125 L 5.703125 -2.234375 L 2.328125 -2.234375 C 2.335938 -1.921875 2.445312 -1.675781 2.65625 -1.5 C 2.875 -1.332031 3.164062 -1.25 3.53125 -1.25 C 3.863281 -1.25 4.164062 -1.28125 4.4375 -1.34375 C 4.71875 -1.40625 5.019531 -1.507812 5.34375 -1.65625 L 5.34375 -0.3125 C 5.050781 -0.15625 4.742188 -0.0507812 4.421875 0 C 4.109375 0.0625 3.734375 0.09375 3.296875 0.09375 Z M 3.1875 -4.296875 C 2.96875 -4.296875 2.78125 -4.222656 2.625 -4.078125 C 2.476562 -3.941406 2.390625 -3.722656 2.359375 -3.421875 L 3.984375 -3.421875 C 3.984375 -3.679688 3.910156 -3.890625 3.765625 -4.046875 C 3.617188 -4.210938 3.425781 -4.296875 3.1875 -4.296875 Z M 3.1875 -4.296875 "/></g></g><g transform="translate(235.791402, 512.593214)"><g><path d="M 7.375 0 L 7.375 -2.984375 C 7.375 -3.347656 7.320312 -3.625 7.21875 -3.8125 C 7.125 -4 6.96875 -4.09375 6.75 -4.09375 C 6.457031 -4.09375 6.242188 -3.96875 6.109375 -3.71875 C 5.972656 -3.46875 5.90625 -3.078125 5.90625 -2.546875 L 5.90625 0 L 4.015625 0 L 4.015625 -2.984375 C 4.015625 -3.347656 3.960938 -3.625 3.859375 -3.8125 C 3.765625 -4 3.609375 -4.09375 3.390625 -4.09375 C 3.097656 -4.09375 2.882812 -3.957031 2.75 -3.6875 C 2.613281 -3.425781 2.546875 -3 2.546875 -2.40625 L 2.546875 0 L 0.65625 0 L 0.65625 -5.484375 L 2.078125 -5.484375 L 2.3125 -4.796875 L 2.421875 -4.796875 C 2.566406 -5.054688 2.773438 -5.25 3.046875 -5.375 C 3.328125 -5.507812 3.644531 -5.578125 4 -5.578125 C 4.789062 -5.578125 5.347656 -5.335938 5.671875 -4.859375 L 5.8125 -4.859375 C 5.96875 -5.078125 6.179688 -5.25 6.453125 -5.375 C 6.734375 -5.507812 7.039062 -5.578125 7.375 -5.578125 C 8.019531 -5.578125 8.492188 -5.410156 8.796875 -5.078125 C 9.109375 -4.742188 9.265625 -4.238281 9.265625 -3.5625 L 9.265625 0 Z M 7.375 0 "/></g></g><g transform="translate(245.693943, 512.593214)"><g><path d="M 3.296875 0.09375 C 2.390625 0.09375 1.679688 -0.144531 1.171875 -0.625 C 0.671875 -1.113281 0.421875 -1.804688 0.421875 -2.703125 C 0.421875 -3.628906 0.648438 -4.335938 1.109375 -4.828125 C 1.578125 -5.328125 2.25 -5.578125 3.125 -5.578125 C 3.945312 -5.578125 4.582031 -5.359375 5.03125 -4.921875 C 5.476562 -4.492188 5.703125 -3.878906 5.703125 -3.078125 L 5.703125 -2.234375 L 2.328125 -2.234375 C 2.335938 -1.921875 2.445312 -1.675781 2.65625 -1.5 C 2.875 -1.332031 3.164062 -1.25 3.53125 -1.25 C 3.863281 -1.25 4.164062 -1.28125 4.4375 -1.34375 C 4.71875 -1.40625 5.019531 -1.507812 5.34375 -1.65625 L 5.34375 -0.3125 C 5.050781 -0.15625 4.742188 -0.0507812 4.421875 0 C 4.109375 0.0625 3.734375 0.09375 3.296875 0.09375 Z M 3.1875 -4.296875 C 2.96875 -4.296875 2.78125 -4.222656 2.625 -4.078125 C 2.476562 -3.941406 2.390625 -3.722656 2.359375 -3.421875 L 3.984375 -3.421875 C 3.984375 -3.679688 3.910156 -3.890625 3.765625 -4.046875 C 3.617188 -4.210938 3.425781 -4.296875 3.1875 -4.296875 Z M 3.1875 -4.296875 "/></g></g><g transform="translate(251.815338, 512.593214)"><g><path d="M 4.109375 0 L 4.109375 -2.984375 C 4.109375 -3.347656 4.054688 -3.625 3.953125 -3.8125 C 3.847656 -4 3.679688 -4.09375 3.453125 -4.09375 C 3.128906 -4.09375 2.894531 -3.960938 2.75 -3.703125 C 2.613281 -3.453125 2.546875 -3.019531 2.546875 -2.40625 L 2.546875 0 L 0.65625 0 L 0.65625 -5.484375 L 2.078125 -5.484375 L 2.3125 -4.796875 L 2.421875 -4.796875 C 2.585938 -5.054688 2.8125 -5.25 3.09375 -5.375 C 3.382812 -5.507812 3.710938 -5.578125 4.078125 -5.578125 C 4.679688 -5.578125 5.148438 -5.398438 5.484375 -5.046875 C 5.828125 -4.691406 6 -4.195312 6 -3.5625 L 6 0 Z M 4.109375 0 "/></g></g><g transform="translate(258.449267, 512.593214)"><g><path d="M 3.34375 -1.390625 C 3.59375 -1.390625 3.894531 -1.457031 4.25 -1.59375 L 4.25 -0.203125 C 4 -0.0976562 3.753906 -0.0234375 3.515625 0.015625 C 3.285156 0.0664062 3.019531 0.09375 2.71875 0.09375 C 2.082031 0.09375 1.625 -0.0625 1.34375 -0.375 C 1.0625 -0.6875 0.921875 -1.160156 0.921875 -1.796875 L 0.921875 -4.0625 L 0.25 -4.0625 L 0.25 -4.828125 L 1.09375 -5.421875 L 1.59375 -6.578125 L 2.828125 -6.578125 L 2.828125 -5.484375 L 4.171875 -5.484375 L 4.171875 -4.0625 L 2.828125 -4.0625 L 2.828125 -1.9375 C 2.828125 -1.570312 3 -1.390625 3.34375 -1.390625 Z M 3.34375 -1.390625 "/></g></g><g transform="translate(263.004049, 512.593214)"><g><path d="M 5.890625 -2.75 C 5.890625 -1.851562 5.644531 -1.15625 5.15625 -0.65625 C 4.675781 -0.15625 4.003906 0.09375 3.140625 0.09375 C 2.304688 0.09375 1.644531 -0.160156 1.15625 -0.671875 C 0.664062 -1.179688 0.421875 -1.875 0.421875 -2.75 C 0.421875 -3.644531 0.660156 -4.335938 1.140625 -4.828125 C 1.617188 -5.328125 2.296875 -5.578125 3.171875 -5.578125 C 3.703125 -5.578125 4.175781 -5.460938 4.59375 -5.234375 C 5.007812 -5.003906 5.328125 -4.675781 5.546875 -4.25 C 5.773438 -3.820312 5.890625 -3.320312 5.890625 -2.75 Z M 2.34375 -2.75 C 2.34375 -2.28125 2.40625 -1.921875 2.53125 -1.671875 C 2.65625 -1.429688 2.863281 -1.3125 3.15625 -1.3125 C 3.445312 -1.3125 3.65625 -1.429688 3.78125 -1.671875 C 3.90625 -1.921875 3.96875 -2.28125 3.96875 -2.75 C 3.96875 -3.21875 3.90625 -3.570312 3.78125 -3.8125 C 3.65625 -4.050781 3.445312 -4.171875 3.15625 -4.171875 C 2.863281 -4.171875 2.65625 -4.050781 2.53125 -3.8125 C 2.40625 -3.570312 2.34375 -3.21875 2.34375 -2.75 Z M 2.34375 -2.75 "/></g></g><g transform="translate(269.314017, 512.593214)"><g/></g><g transform="translate(271.886357, 512.593214)"><g><path d="M 4.5625 0 L 2.609375 0 L 2.609375 -3.75 C 2.609375 -4.195312 2.617188 -4.609375 2.640625 -4.984375 C 2.523438 -4.847656 2.378906 -4.695312 2.203125 -4.53125 L 1.390625 -3.875 L 0.40625 -5.09375 L 2.828125 -7.078125 L 4.5625 -7.078125 Z M 4.5625 0 "/></g></g></g><g fill="#0083c4" fill-opacity="1"><g transform="translate(299.284589, 512.593214)"><g><path d="M 4.96875 0 L 0.765625 0 L 0.765625 -7.078125 L 4.96875 -7.078125 L 4.96875 -5.53125 L 2.671875 -5.53125 L 2.671875 -4.421875 L 4.796875 -4.421875 L 4.796875 -2.890625 L 2.671875 -2.890625 L 2.671875 -1.5625 L 4.96875 -1.5625 Z M 4.96875 0 "/></g></g><g transform="translate(304.719382, 512.593214)"><g><path d="M 2.546875 0 L 0.65625 0 L 0.65625 -7.53125 L 2.546875 -7.53125 Z M 2.546875 0 "/></g></g><g transform="translate(307.920301, 512.593214)"><g><path d="M 3.296875 0.09375 C 2.390625 0.09375 1.679688 -0.144531 1.171875 -0.625 C 0.671875 -1.113281 0.421875 -1.804688 0.421875 -2.703125 C 0.421875 -3.628906 0.648438 -4.335938 1.109375 -4.828125 C 1.578125 -5.328125 2.25 -5.578125 3.125 -5.578125 C 3.945312 -5.578125 4.582031 -5.359375 5.03125 -4.921875 C 5.476562 -4.492188 5.703125 -3.878906 5.703125 -3.078125 L 5.703125 -2.234375 L 2.328125 -2.234375 C 2.335938 -1.921875 2.445312 -1.675781 2.65625 -1.5 C 2.875 -1.332031 3.164062 -1.25 3.53125 -1.25 C 3.863281 -1.25 4.164062 -1.28125 4.4375 -1.34375 C 4.71875 -1.40625 5.019531 -1.507812 5.34375 -1.65625 L 5.34375 -0.3125 C 5.050781 -0.15625 4.742188 -0.0507812 4.421875 0 C 4.109375 0.0625 3.734375 0.09375 3.296875 0.09375 Z M 3.1875 -4.296875 C 2.96875 -4.296875 2.78125 -4.222656 2.625 -4.078125 C 2.476562 -3.941406 2.390625 -3.722656 2.359375 -3.421875 L 3.984375 -3.421875 C 3.984375 -3.679688 3.910156 -3.890625 3.765625 -4.046875 C 3.617188 -4.210938 3.425781 -4.296875 3.1875 -4.296875 Z M 3.1875 -4.296875 "/></g></g><g transform="translate(314.041696, 512.593214)"><g><path d="M 7.375 0 L 7.375 -2.984375 C 7.375 -3.347656 7.320312 -3.625 7.21875 -3.8125 C 7.125 -4 6.96875 -4.09375 6.75 -4.09375 C 6.457031 -4.09375 6.242188 -3.96875 6.109375 -3.71875 C 5.972656 -3.46875 5.90625 -3.078125 5.90625 -2.546875 L 5.90625 0 L 4.015625 0 L 4.015625 -2.984375 C 4.015625 -3.347656 3.960938 -3.625 3.859375 -3.8125 C 3.765625 -4 3.609375 -4.09375 3.390625 -4.09375 C 3.097656 -4.09375 2.882812 -3.957031 2.75 -3.6875 C 2.613281 -3.425781 2.546875 -3 2.546875 -2.40625 L 2.546875 0 L 0.65625 0 L 0.65625 -5.484375 L 2.078125 -5.484375 L 2.3125 -4.796875 L 2.421875 -4.796875 C 2.566406 -5.054688 2.773438 -5.25 3.046875 -5.375 C 3.328125 -5.507812 3.644531 -5.578125 4 -5.578125 C 4.789062 -5.578125 5.347656 -5.335938 5.671875 -4.859375 L 5.8125 -4.859375 C 5.96875 -5.078125 6.179688 -5.25 6.453125 -5.375 C 6.734375 -5.507812 7.039062 -5.578125 7.375 -5.578125 C 8.019531 -5.578125 8.492188 -5.410156 8.796875 -5.078125 C 9.109375 -4.742188 9.265625 -4.238281 9.265625 -3.5625 L 9.265625 0 Z M 7.375 0 "/></g></g><g transform="translate(323.944237, 512.593214)"><g><path d="M 3.296875 0.09375 C 2.390625 0.09375 1.679688 -0.144531 1.171875 -0.625 C 0.671875 -1.113281 0.421875 -1.804688 0.421875 -2.703125 C 0.421875 -3.628906 0.648438 -4.335938 1.109375 -4.828125 C 1.578125 -5.328125 2.25 -5.578125 3.125 -5.578125 C 3.945312 -5.578125 4.582031 -5.359375 5.03125 -4.921875 C 5.476562 -4.492188 5.703125 -3.878906 5.703125 -3.078125 L 5.703125 -2.234375 L 2.328125 -2.234375 C 2.335938 -1.921875 2.445312 -1.675781 2.65625 -1.5 C 2.875 -1.332031 3.164062 -1.25 3.53125 -1.25 C 3.863281 -1.25 4.164062 -1.28125 4.4375 -1.34375 C 4.71875 -1.40625 5.019531 -1.507812 5.34375 -1.65625 L 5.34375 -0.3125 C 5.050781 -0.15625 4.742188 -0.0507812 4.421875 0 C 4.109375 0.0625 3.734375 0.09375 3.296875 0.09375 Z M 3.1875 -4.296875 C 2.96875 -4.296875 2.78125 -4.222656 2.625 -4.078125 C 2.476562 -3.941406 2.390625 -3.722656 2.359375 -3.421875 L 3.984375 -3.421875 C 3.984375 -3.679688 3.910156 -3.890625 3.765625 -4.046875 C 3.617188 -4.210938 3.425781 -4.296875 3.1875 -4.296875 Z M 3.1875 -4.296875 "/></g></g><g transform="translate(330.065632, 512.593214)"><g><path d="M 4.109375 0 L 4.109375 -2.984375 C 4.109375 -3.347656 4.054688 -3.625 3.953125 -3.8125 C 3.847656 -4 3.679688 -4.09375 3.453125 -4.09375 C 3.128906 -4.09375 2.894531 -3.960938 2.75 -3.703125 C 2.613281 -3.453125 2.546875 -3.019531 2.546875 -2.40625 L 2.546875 0 L 0.65625 0 L 0.65625 -5.484375 L 2.078125 -5.484375 L 2.3125 -4.796875 L 2.421875 -4.796875 C 2.585938 -5.054688 2.8125 -5.25 3.09375 -5.375 C 3.382812 -5.507812 3.710938 -5.578125 4.078125 -5.578125 C 4.679688 -5.578125 5.148438 -5.398438 5.484375 -5.046875 C 5.828125 -4.691406 6 -4.195312 6 -3.5625 L 6 0 Z M 4.109375 0 "/></g></g><g transform="translate(336.699561, 512.593214)"><g><path d="M 3.34375 -1.390625 C 3.59375 -1.390625 3.894531 -1.457031 4.25 -1.59375 L 4.25 -0.203125 C 4 -0.0976562 3.753906 -0.0234375 3.515625 0.015625 C 3.285156 0.0664062 3.019531 0.09375 2.71875 0.09375 C 2.082031 0.09375 1.625 -0.0625 1.34375 -0.375 C 1.0625 -0.6875 0.921875 -1.160156 0.921875 -1.796875 L 0.921875 -4.0625 L 0.25 -4.0625 L 0.25 -4.828125 L 1.09375 -5.421875 L 1.59375 -6.578125 L 2.828125 -6.578125 L 2.828125 -5.484375 L 4.171875 -5.484375 L 4.171875 -4.0625 L 2.828125 -4.0625 L 2.828125 -1.9375 C 2.828125 -1.570312 3 -1.390625 3.34375 -1.390625 Z M 3.34375 -1.390625 "/></g></g><g transform="translate(341.254343, 512.593214)"><g><path d="M 5.890625 -2.75 C 5.890625 -1.851562 5.644531 -1.15625 5.15625 -0.65625 C 4.675781 -0.15625 4.003906 0.09375 3.140625 0.09375 C 2.304688 0.09375 1.644531 -0.160156 1.15625 -0.671875 C 0.664062 -1.179688 0.421875 -1.875 0.421875 -2.75 C 0.421875 -3.644531 0.660156 -4.335938 1.140625 -4.828125 C 1.617188 -5.328125 2.296875 -5.578125 3.171875 -5.578125 C 3.703125 -5.578125 4.175781 -5.460938 4.59375 -5.234375 C 5.007812 -5.003906 5.328125 -4.675781 5.546875 -4.25 C 5.773438 -3.820312 5.890625 -3.320312 5.890625 -2.75 Z M 2.34375 -2.75 C 2.34375 -2.28125 2.40625 -1.921875 2.53125 -1.671875 C 2.65625 -1.429688 2.863281 -1.3125 3.15625 -1.3125 C 3.445312 -1.3125 3.65625 -1.429688 3.78125 -1.671875 C 3.90625 -1.921875 3.96875 -2.28125 3.96875 -2.75 C 3.96875 -3.21875 3.90625 -3.570312 3.78125 -3.8125 C 3.65625 -4.050781 3.445312 -4.171875 3.15625 -4.171875 C 2.863281 -4.171875 2.65625 -4.050781 2.53125 -3.8125 C 2.40625 -3.570312 2.34375 -3.21875 2.34375 -2.75 Z M 2.34375 -2.75 "/></g></g><g transform="translate(347.564312, 512.593214)"><g/></g><g transform="translate(350.136652, 512.593214)"><g><path d="M 5.421875 0 L 0.296875 0 L 0.296875 -1.25 L 2.015625 -3 C 2.515625 -3.519531 2.835938 -3.875 2.984375 -4.0625 C 3.140625 -4.25 3.242188 -4.410156 3.296875 -4.546875 C 3.359375 -4.679688 3.390625 -4.820312 3.390625 -4.96875 C 3.390625 -5.15625 3.328125 -5.300781 3.203125 -5.40625 C 3.085938 -5.507812 2.925781 -5.5625 2.71875 -5.5625 C 2.488281 -5.5625 2.257812 -5.5 2.03125 -5.375 C 1.8125 -5.25 1.554688 -5.0625 1.265625 -4.8125 L 0.21875 -6.046875 C 0.582031 -6.367188 0.890625 -6.597656 1.140625 -6.734375 C 1.390625 -6.878906 1.660156 -6.988281 1.953125 -7.0625 C 2.242188 -7.132812 2.570312 -7.171875 2.9375 -7.171875 C 3.394531 -7.171875 3.800781 -7.085938 4.15625 -6.921875 C 4.519531 -6.765625 4.800781 -6.535156 5 -6.234375 C 5.195312 -5.941406 5.296875 -5.609375 5.296875 -5.234375 C 5.296875 -4.960938 5.257812 -4.707031 5.1875 -4.46875 C 5.113281 -4.226562 5.003906 -3.992188 4.859375 -3.765625 C 4.710938 -3.546875 4.519531 -3.3125 4.28125 -3.0625 C 4.039062 -2.8125 3.53125 -2.332031 2.75 -1.625 L 2.75 -1.578125 L 5.421875 -1.578125 Z M 5.421875 0 "/></g></g></g><g fill="#0083c4" fill-opacity="1"><g transform="translate(377.534927, 512.593214)"><g><path d="M 4.96875 0 L 0.765625 0 L 0.765625 -7.078125 L 4.96875 -7.078125 L 4.96875 -5.53125 L 2.671875 -5.53125 L 2.671875 -4.421875 L 4.796875 -4.421875 L 4.796875 -2.890625 L 2.671875 -2.890625 L 2.671875 -1.5625 L 4.96875 -1.5625 Z M 4.96875 0 "/></g></g><g transform="translate(382.96972, 512.593214)"><g><path d="M 2.546875 0 L 0.65625 0 L 0.65625 -7.53125 L 2.546875 -7.53125 Z M 2.546875 0 "/></g></g><g transform="translate(386.170639, 512.593214)"><g><path d="M 3.296875 0.09375 C 2.390625 0.09375 1.679688 -0.144531 1.171875 -0.625 C 0.671875 -1.113281 0.421875 -1.804688 0.421875 -2.703125 C 0.421875 -3.628906 0.648438 -4.335938 1.109375 -4.828125 C 1.578125 -5.328125 2.25 -5.578125 3.125 -5.578125 C 3.945312 -5.578125 4.582031 -5.359375 5.03125 -4.921875 C 5.476562 -4.492188 5.703125 -3.878906 5.703125 -3.078125 L 5.703125 -2.234375 L 2.328125 -2.234375 C 2.335938 -1.921875 2.445312 -1.675781 2.65625 -1.5 C 2.875 -1.332031 3.164062 -1.25 3.53125 -1.25 C 3.863281 -1.25 4.164062 -1.28125 4.4375 -1.34375 C 4.71875 -1.40625 5.019531 -1.507812 5.34375 -1.65625 L 5.34375 -0.3125 C 5.050781 -0.15625 4.742188 -0.0507812 4.421875 0 C 4.109375 0.0625 3.734375 0.09375 3.296875 0.09375 Z M 3.1875 -4.296875 C 2.96875 -4.296875 2.78125 -4.222656 2.625 -4.078125 C 2.476562 -3.941406 2.390625 -3.722656 2.359375 -3.421875 L 3.984375 -3.421875 C 3.984375 -3.679688 3.910156 -3.890625 3.765625 -4.046875 C 3.617188 -4.210938 3.425781 -4.296875 3.1875 -4.296875 Z M 3.1875 -4.296875 "/></g></g><g transform="translate(392.292034, 512.593214)"><g><path d="M 7.375 0 L 7.375 -2.984375 C 7.375 -3.347656 7.320312 -3.625 7.21875 -3.8125 C 7.125 -4 6.96875 -4.09375 6.75 -4.09375 C 6.457031 -4.09375 6.242188 -3.96875 6.109375 -3.71875 C 5.972656 -3.46875 5.90625 -3.078125 5.90625 -2.546875 L 5.90625 0 L 4.015625 0 L 4.015625 -2.984375 C 4.015625 -3.347656 3.960938 -3.625 3.859375 -3.8125 C 3.765625 -4 3.609375 -4.09375 3.390625 -4.09375 C 3.097656 -4.09375 2.882812 -3.957031 2.75 -3.6875 C 2.613281 -3.425781 2.546875 -3 2.546875 -2.40625 L 2.546875 0 L 0.65625 0 L 0.65625 -5.484375 L 2.078125 -5.484375 L 2.3125 -4.796875 L 2.421875 -4.796875 C 2.566406 -5.054688 2.773438 -5.25 3.046875 -5.375 C 3.328125 -5.507812 3.644531 -5.578125 4 -5.578125 C 4.789062 -5.578125 5.347656 -5.335938 5.671875 -4.859375 L 5.8125 -4.859375 C 5.96875 -5.078125 6.179688 -5.25 6.453125 -5.375 C 6.734375 -5.507812 7.039062 -5.578125 7.375 -5.578125 C 8.019531 -5.578125 8.492188 -5.410156 8.796875 -5.078125 C 9.109375 -4.742188 9.265625 -4.238281 9.265625 -3.5625 L 9.265625 0 Z M 7.375 0 "/></g></g><g transform="translate(402.194575, 512.593214)"><g><path d="M 3.296875 0.09375 C 2.390625 0.09375 1.679688 -0.144531 1.171875 -0.625 C 0.671875 -1.113281 0.421875 -1.804688 0.421875 -2.703125 C 0.421875 -3.628906 0.648438 -4.335938 1.109375 -4.828125 C 1.578125 -5.328125 2.25 -5.578125 3.125 -5.578125 C 3.945312 -5.578125 4.582031 -5.359375 5.03125 -4.921875 C 5.476562 -4.492188 5.703125 -3.878906 5.703125 -3.078125 L 5.703125 -2.234375 L 2.328125 -2.234375 C 2.335938 -1.921875 2.445312 -1.675781 2.65625 -1.5 C 2.875 -1.332031 3.164062 -1.25 3.53125 -1.25 C 3.863281 -1.25 4.164062 -1.28125 4.4375 -1.34375 C 4.71875 -1.40625 5.019531 -1.507812 5.34375 -1.65625 L 5.34375 -0.3125 C 5.050781 -0.15625 4.742188 -0.0507812 4.421875 0 C 4.109375 0.0625 3.734375 0.09375 3.296875 0.09375 Z M 3.1875 -4.296875 C 2.96875 -4.296875 2.78125 -4.222656 2.625 -4.078125 C 2.476562 -3.941406 2.390625 -3.722656 2.359375 -3.421875 L 3.984375 -3.421875 C 3.984375 -3.679688 3.910156 -3.890625 3.765625 -4.046875 C 3.617188 -4.210938 3.425781 -4.296875 3.1875 -4.296875 Z M 3.1875 -4.296875 "/></g></g><g transform="translate(408.31597, 512.593214)"><g><path d="M 4.109375 0 L 4.109375 -2.984375 C 4.109375 -3.347656 4.054688 -3.625 3.953125 -3.8125 C 3.847656 -4 3.679688 -4.09375 3.453125 -4.09375 C 3.128906 -4.09375 2.894531 -3.960938 2.75 -3.703125 C 2.613281 -3.453125 2.546875 -3.019531 2.546875 -2.40625 L 2.546875 0 L 0.65625 0 L 0.65625 -5.484375 L 2.078125 -5.484375 L 2.3125 -4.796875 L 2.421875 -4.796875 C 2.585938 -5.054688 2.8125 -5.25 3.09375 -5.375 C 3.382812 -5.507812 3.710938 -5.578125 4.078125 -5.578125 C 4.679688 -5.578125 5.148438 -5.398438 5.484375 -5.046875 C 5.828125 -4.691406 6 -4.195312 6 -3.5625 L 6 0 Z M 4.109375 0 "/></g></g><g transform="translate(414.949899, 512.593214)"><g><path d="M 3.34375 -1.390625 C 3.59375 -1.390625 3.894531 -1.457031 4.25 -1.59375 L 4.25 -0.203125 C 4 -0.0976562 3.753906 -0.0234375 3.515625 0.015625 C 3.285156 0.0664062 3.019531 0.09375 2.71875 0.09375 C 2.082031 0.09375 1.625 -0.0625 1.34375 -0.375 C 1.0625 -0.6875 0.921875 -1.160156 0.921875 -1.796875 L 0.921875 -4.0625 L 0.25 -4.0625 L 0.25 -4.828125 L 1.09375 -5.421875 L 1.59375 -6.578125 L 2.828125 -6.578125 L 2.828125 -5.484375 L 4.171875 -5.484375 L 4.171875 -4.0625 L 2.828125 -4.0625 L 2.828125 -1.9375 C 2.828125 -1.570312 3 -1.390625 3.34375 -1.390625 Z M 3.34375 -1.390625 "/></g></g><g transform="translate(419.504681, 512.593214)"><g><path d="M 5.890625 -2.75 C 5.890625 -1.851562 5.644531 -1.15625 5.15625 -0.65625 C 4.675781 -0.15625 4.003906 0.09375 3.140625 0.09375 C 2.304688 0.09375 1.644531 -0.160156 1.15625 -0.671875 C 0.664062 -1.179688 0.421875 -1.875 0.421875 -2.75 C 0.421875 -3.644531 0.660156 -4.335938 1.140625 -4.828125 C 1.617188 -5.328125 2.296875 -5.578125 3.171875 -5.578125 C 3.703125 -5.578125 4.175781 -5.460938 4.59375 -5.234375 C 5.007812 -5.003906 5.328125 -4.675781 5.546875 -4.25 C 5.773438 -3.820312 5.890625 -3.320312 5.890625 -2.75 Z M 2.34375 -2.75 C 2.34375 -2.28125 2.40625 -1.921875 2.53125 -1.671875 C 2.65625 -1.429688 2.863281 -1.3125 3.15625 -1.3125 C 3.445312 -1.3125 3.65625 -1.429688 3.78125 -1.671875 C 3.90625 -1.921875 3.96875 -2.28125 3.96875 -2.75 C 3.96875 -3.21875 3.90625 -3.570312 3.78125 -3.8125 C 3.65625 -4.050781 3.445312 -4.171875 3.15625 -4.171875 C 2.863281 -4.171875 2.65625 -4.050781 2.53125 -3.8125 C 2.40625 -3.570312 2.34375 -3.21875 2.34375 -2.75 Z M 2.34375 -2.75 "/></g></g><g transform="translate(425.814649, 512.593214)"><g/></g><g transform="translate(428.386989, 512.593214)"><g><path d="M 5.1875 -5.53125 C 5.1875 -5.09375 5.050781 -4.71875 4.78125 -4.40625 C 4.519531 -4.09375 4.132812 -3.863281 3.625 -3.71875 L 3.625 -3.703125 C 4.800781 -3.546875 5.390625 -2.984375 5.390625 -2.015625 C 5.390625 -1.359375 5.128906 -0.84375 4.609375 -0.46875 C 4.085938 -0.09375 3.367188 0.09375 2.453125 0.09375 C 2.066406 0.09375 1.710938 0.0664062 1.390625 0.015625 C 1.066406 -0.0351562 0.71875 -0.132812 0.34375 -0.28125 L 0.34375 -1.875 C 0.644531 -1.71875 0.957031 -1.597656 1.28125 -1.515625 C 1.601562 -1.441406 1.898438 -1.40625 2.171875 -1.40625 C 2.585938 -1.40625 2.890625 -1.460938 3.078125 -1.578125 C 3.273438 -1.703125 3.375 -1.890625 3.375 -2.140625 C 3.375 -2.328125 3.320312 -2.472656 3.21875 -2.578125 C 3.125 -2.691406 2.960938 -2.773438 2.734375 -2.828125 C 2.515625 -2.878906 2.226562 -2.90625 1.875 -2.90625 L 1.4375 -2.90625 L 1.4375 -4.34375 L 1.875 -4.34375 C 2.851562 -4.34375 3.34375 -4.585938 3.34375 -5.078125 C 3.34375 -5.265625 3.269531 -5.40625 3.125 -5.5 C 2.976562 -5.59375 2.785156 -5.640625 2.546875 -5.640625 C 2.085938 -5.640625 1.617188 -5.488281 1.140625 -5.1875 L 0.34375 -6.453125 C 0.71875 -6.710938 1.097656 -6.894531 1.484375 -7 C 1.878906 -7.113281 2.332031 -7.171875 2.84375 -7.171875 C 3.570312 -7.171875 4.144531 -7.023438 4.5625 -6.734375 C 4.976562 -6.441406 5.1875 -6.039062 5.1875 -5.53125 Z M 5.1875 -5.53125 "/></g></g></g><g fill="#0083c4" fill-opacity="1"><g transform="translate(455.785205, 512.593214)"><g><path d="M 4.96875 0 L 0.765625 0 L 0.765625 -7.078125 L 4.96875 -7.078125 L 4.96875 -5.53125 L 2.671875 -5.53125 L 2.671875 -4.421875 L 4.796875 -4.421875 L 4.796875 -2.890625 L 2.671875 -2.890625 L 2.671875 -1.5625 L 4.96875 -1.5625 Z M 4.96875 0 "/></g></g><g transform="translate(461.219998, 512.593214)"><g><path d="M 2.546875 0 L 0.65625 0 L 0.65625 -7.53125 L 2.546875 -7.53125 Z M 2.546875 0 "/></g></g><g transform="translate(464.420917, 512.593214)"><g><path d="M 3.296875 0.09375 C 2.390625 0.09375 1.679688 -0.144531 1.171875 -0.625 C 0.671875 -1.113281 0.421875 -1.804688 0.421875 -2.703125 C 0.421875 -3.628906 0.648438 -4.335938 1.109375 -4.828125 C 1.578125 -5.328125 2.25 -5.578125 3.125 -5.578125 C 3.945312 -5.578125 4.582031 -5.359375 5.03125 -4.921875 C 5.476562 -4.492188 5.703125 -3.878906 5.703125 -3.078125 L 5.703125 -2.234375 L 2.328125 -2.234375 C 2.335938 -1.921875 2.445312 -1.675781 2.65625 -1.5 C 2.875 -1.332031 3.164062 -1.25 3.53125 -1.25 C 3.863281 -1.25 4.164062 -1.28125 4.4375 -1.34375 C 4.71875 -1.40625 5.019531 -1.507812 5.34375 -1.65625 L 5.34375 -0.3125 C 5.050781 -0.15625 4.742188 -0.0507812 4.421875 0 C 4.109375 0.0625 3.734375 0.09375 3.296875 0.09375 Z M 3.1875 -4.296875 C 2.96875 -4.296875 2.78125 -4.222656 2.625 -4.078125 C 2.476562 -3.941406 2.390625 -3.722656 2.359375 -3.421875 L 3.984375 -3.421875 C 3.984375 -3.679688 3.910156 -3.890625 3.765625 -4.046875 C 3.617188 -4.210938 3.425781 -4.296875 3.1875 -4.296875 Z M 3.1875 -4.296875 "/></g></g><g transform="translate(470.542312, 512.593214)"><g><path d="M 7.375 0 L 7.375 -2.984375 C 7.375 -3.347656 7.320312 -3.625 7.21875 -3.8125 C 7.125 -4 6.96875 -4.09375 6.75 -4.09375 C 6.457031 -4.09375 6.242188 -3.96875 6.109375 -3.71875 C 5.972656 -3.46875 5.90625 -3.078125 5.90625 -2.546875 L 5.90625 0 L 4.015625 0 L 4.015625 -2.984375 C 4.015625 -3.347656 3.960938 -3.625 3.859375 -3.8125 C 3.765625 -4 3.609375 -4.09375 3.390625 -4.09375 C 3.097656 -4.09375 2.882812 -3.957031 2.75 -3.6875 C 2.613281 -3.425781 2.546875 -3 2.546875 -2.40625 L 2.546875 0 L 0.65625 0 L 0.65625 -5.484375 L 2.078125 -5.484375 L 2.3125 -4.796875 L 2.421875 -4.796875 C 2.566406 -5.054688 2.773438 -5.25 3.046875 -5.375 C 3.328125 -5.507812 3.644531 -5.578125 4 -5.578125 C 4.789062 -5.578125 5.347656 -5.335938 5.671875 -4.859375 L 5.8125 -4.859375 C 5.96875 -5.078125 6.179688 -5.25 6.453125 -5.375 C 6.734375 -5.507812 7.039062 -5.578125 7.375 -5.578125 C 8.019531 -5.578125 8.492188 -5.410156 8.796875 -5.078125 C 9.109375 -4.742188 9.265625 -4.238281 9.265625 -3.5625 L 9.265625 0 Z M 7.375 0 "/></g></g><g transform="translate(480.444853, 512.593214)"><g><path d="M 3.296875 0.09375 C 2.390625 0.09375 1.679688 -0.144531 1.171875 -0.625 C 0.671875 -1.113281 0.421875 -1.804688 0.421875 -2.703125 C 0.421875 -3.628906 0.648438 -4.335938 1.109375 -4.828125 C 1.578125 -5.328125 2.25 -5.578125 3.125 -5.578125 C 3.945312 -5.578125 4.582031 -5.359375 5.03125 -4.921875 C 5.476562 -4.492188 5.703125 -3.878906 5.703125 -3.078125 L 5.703125 -2.234375 L 2.328125 -2.234375 C 2.335938 -1.921875 2.445312 -1.675781 2.65625 -1.5 C 2.875 -1.332031 3.164062 -1.25 3.53125 -1.25 C 3.863281 -1.25 4.164062 -1.28125 4.4375 -1.34375 C 4.71875 -1.40625 5.019531 -1.507812 5.34375 -1.65625 L 5.34375 -0.3125 C 5.050781 -0.15625 4.742188 -0.0507812 4.421875 0 C 4.109375 0.0625 3.734375 0.09375 3.296875 0.09375 Z M 3.1875 -4.296875 C 2.96875 -4.296875 2.78125 -4.222656 2.625 -4.078125 C 2.476562 -3.941406 2.390625 -3.722656 2.359375 -3.421875 L 3.984375 -3.421875 C 3.984375 -3.679688 3.910156 -3.890625 3.765625 -4.046875 C 3.617188 -4.210938 3.425781 -4.296875 3.1875 -4.296875 Z M 3.1875 -4.296875 "/></g></g><g transform="translate(486.566247, 512.593214)"><g><path d="M 4.109375 0 L 4.109375 -2.984375 C 4.109375 -3.347656 4.054688 -3.625 3.953125 -3.8125 C 3.847656 -4 3.679688 -4.09375 3.453125 -4.09375 C 3.128906 -4.09375 2.894531 -3.960938 2.75 -3.703125 C 2.613281 -3.453125 2.546875 -3.019531 2.546875 -2.40625 L 2.546875 0 L 0.65625 0 L 0.65625 -5.484375 L 2.078125 -5.484375 L 2.3125 -4.796875 L 2.421875 -4.796875 C 2.585938 -5.054688 2.8125 -5.25 3.09375 -5.375 C 3.382812 -5.507812 3.710938 -5.578125 4.078125 -5.578125 C 4.679688 -5.578125 5.148438 -5.398438 5.484375 -5.046875 C 5.828125 -4.691406 6 -4.195312 6 -3.5625 L 6 0 Z M 4.109375 0 "/></g></g><g transform="translate(493.200176, 512.593214)"><g><path d="M 3.34375 -1.390625 C 3.59375 -1.390625 3.894531 -1.457031 4.25 -1.59375 L 4.25 -0.203125 C 4 -0.0976562 3.753906 -0.0234375 3.515625 0.015625 C 3.285156 0.0664062 3.019531 0.09375 2.71875 0.09375 C 2.082031 0.09375 1.625 -0.0625 1.34375 -0.375 C 1.0625 -0.6875 0.921875 -1.160156 0.921875 -1.796875 L 0.921875 -4.0625 L 0.25 -4.0625 L 0.25 -4.828125 L 1.09375 -5.421875 L 1.59375 -6.578125 L 2.828125 -6.578125 L 2.828125 -5.484375 L 4.171875 -5.484375 L 4.171875 -4.0625 L 2.828125 -4.0625 L 2.828125 -1.9375 C 2.828125 -1.570312 3 -1.390625 3.34375 -1.390625 Z M 3.34375 -1.390625 "/></g></g><g transform="translate(497.754958, 512.593214)"><g><path d="M 5.890625 -2.75 C 5.890625 -1.851562 5.644531 -1.15625 5.15625 -0.65625 C 4.675781 -0.15625 4.003906 0.09375 3.140625 0.09375 C 2.304688 0.09375 1.644531 -0.160156 1.15625 -0.671875 C 0.664062 -1.179688 0.421875 -1.875 0.421875 -2.75 C 0.421875 -3.644531 0.660156 -4.335938 1.140625 -4.828125 C 1.617188 -5.328125 2.296875 -5.578125 3.171875 -5.578125 C 3.703125 -5.578125 4.175781 -5.460938 4.59375 -5.234375 C 5.007812 -5.003906 5.328125 -4.675781 5.546875 -4.25 C 5.773438 -3.820312 5.890625 -3.320312 5.890625 -2.75 Z M 2.34375 -2.75 C 2.34375 -2.28125 2.40625 -1.921875 2.53125 -1.671875 C 2.65625 -1.429688 2.863281 -1.3125 3.15625 -1.3125 C 3.445312 -1.3125 3.65625 -1.429688 3.78125 -1.671875 C 3.90625 -1.921875 3.96875 -2.28125 3.96875 -2.75 C 3.96875 -3.21875 3.90625 -3.570312 3.78125 -3.8125 C 3.65625 -4.050781 3.445312 -4.171875 3.15625 -4.171875 C 2.863281 -4.171875 2.65625 -4.050781 2.53125 -3.8125 C 2.40625 -3.570312 2.34375 -3.21875 2.34375 -2.75 Z M 2.34375 -2.75 "/></g></g><g transform="translate(504.064927, 512.593214)"><g/></g><g transform="translate(506.637267, 512.593214)"><g><path d="M 5.65625 -1.375 L 4.875 -1.375 L 4.875 0 L 2.984375 0 L 2.984375 -1.375 L 0.171875 -1.375 L 0.171875 -2.765625 L 3.109375 -7.078125 L 4.875 -7.078125 L 4.875 -2.796875 L 5.65625 -2.796875 Z M 2.984375 -2.796875 L 2.984375 -3.625 C 2.984375 -3.769531 2.988281 -3.972656 3 -4.234375 C 3.007812 -4.503906 3.019531 -4.644531 3.03125 -4.65625 L 2.984375 -4.65625 C 2.867188 -4.40625 2.742188 -4.175781 2.609375 -3.96875 L 1.828125 -2.796875 Z M 2.984375 -2.796875 "/></g></g></g><g fill="#0083c4" fill-opacity="1"><g transform="translate(534.035473, 512.593214)"><g><path d="M 4.96875 0 L 0.765625 0 L 0.765625 -7.078125 L 4.96875 -7.078125 L 4.96875 -5.53125 L 2.671875 -5.53125 L 2.671875 -4.421875 L 4.796875 -4.421875 L 4.796875 -2.890625 L 2.671875 -2.890625 L 2.671875 -1.5625 L 4.96875 -1.5625 Z M 4.96875 0 "/></g></g><g transform="translate(539.470266, 512.593214)"><g><path d="M 2.546875 0 L 0.65625 0 L 0.65625 -7.53125 L 2.546875 -7.53125 Z M 2.546875 0 "/></g></g><g transform="translate(542.671185, 512.593214)"><g><path d="M 3.296875 0.09375 C 2.390625 0.09375 1.679688 -0.144531 1.171875 -0.625 C 0.671875 -1.113281 0.421875 -1.804688 0.421875 -2.703125 C 0.421875 -3.628906 0.648438 -4.335938 1.109375 -4.828125 C 1.578125 -5.328125 2.25 -5.578125 3.125 -5.578125 C 3.945312 -5.578125 4.582031 -5.359375 5.03125 -4.921875 C 5.476562 -4.492188 5.703125 -3.878906 5.703125 -3.078125 L 5.703125 -2.234375 L 2.328125 -2.234375 C 2.335938 -1.921875 2.445312 -1.675781 2.65625 -1.5 C 2.875 -1.332031 3.164062 -1.25 3.53125 -1.25 C 3.863281 -1.25 4.164062 -1.28125 4.4375 -1.34375 C 4.71875 -1.40625 5.019531 -1.507812 5.34375 -1.65625 L 5.34375 -0.3125 C 5.050781 -0.15625 4.742188 -0.0507812 4.421875 0 C 4.109375 0.0625 3.734375 0.09375 3.296875 0.09375 Z M 3.1875 -4.296875 C 2.96875 -4.296875 2.78125 -4.222656 2.625 -4.078125 C 2.476562 -3.941406 2.390625 -3.722656 2.359375 -3.421875 L 3.984375 -3.421875 C 3.984375 -3.679688 3.910156 -3.890625 3.765625 -4.046875 C 3.617188 -4.210938 3.425781 -4.296875 3.1875 -4.296875 Z M 3.1875 -4.296875 "/></g></g><g transform="translate(548.79258, 512.593214)"><g><path d="M 7.375 0 L 7.375 -2.984375 C 7.375 -3.347656 7.320312 -3.625 7.21875 -3.8125 C 7.125 -4 6.96875 -4.09375 6.75 -4.09375 C 6.457031 -4.09375 6.242188 -3.96875 6.109375 -3.71875 C 5.972656 -3.46875 5.90625 -3.078125 5.90625 -2.546875 L 5.90625 0 L 4.015625 0 L 4.015625 -2.984375 C 4.015625 -3.347656 3.960938 -3.625 3.859375 -3.8125 C 3.765625 -4 3.609375 -4.09375 3.390625 -4.09375 C 3.097656 -4.09375 2.882812 -3.957031 2.75 -3.6875 C 2.613281 -3.425781 2.546875 -3 2.546875 -2.40625 L 2.546875 0 L 0.65625 0 L 0.65625 -5.484375 L 2.078125 -5.484375 L 2.3125 -4.796875 L 2.421875 -4.796875 C 2.566406 -5.054688 2.773438 -5.25 3.046875 -5.375 C 3.328125 -5.507812 3.644531 -5.578125 4 -5.578125 C 4.789062 -5.578125 5.347656 -5.335938 5.671875 -4.859375 L 5.8125 -4.859375 C 5.96875 -5.078125 6.179688 -5.25 6.453125 -5.375 C 6.734375 -5.507812 7.039062 -5.578125 7.375 -5.578125 C 8.019531 -5.578125 8.492188 -5.410156 8.796875 -5.078125 C 9.109375 -4.742188 9.265625 -4.238281 9.265625 -3.5625 L 9.265625 0 Z M 7.375 0 "/></g></g><g transform="translate(558.695121, 512.593214)"><g><path d="M 3.296875 0.09375 C 2.390625 0.09375 1.679688 -0.144531 1.171875 -0.625 C 0.671875 -1.113281 0.421875 -1.804688 0.421875 -2.703125 C 0.421875 -3.628906 0.648438 -4.335938 1.109375 -4.828125 C 1.578125 -5.328125 2.25 -5.578125 3.125 -5.578125 C 3.945312 -5.578125 4.582031 -5.359375 5.03125 -4.921875 C 5.476562 -4.492188 5.703125 -3.878906 5.703125 -3.078125 L 5.703125 -2.234375 L 2.328125 -2.234375 C 2.335938 -1.921875 2.445312 -1.675781 2.65625 -1.5 C 2.875 -1.332031 3.164062 -1.25 3.53125 -1.25 C 3.863281 -1.25 4.164062 -1.28125 4.4375 -1.34375 C 4.71875 -1.40625 5.019531 -1.507812 5.34375 -1.65625 L 5.34375 -0.3125 C 5.050781 -0.15625 4.742188 -0.0507812 4.421875 0 C 4.109375 0.0625 3.734375 0.09375 3.296875 0.09375 Z M 3.1875 -4.296875 C 2.96875 -4.296875 2.78125 -4.222656 2.625 -4.078125 C 2.476562 -3.941406 2.390625 -3.722656 2.359375 -3.421875 L 3.984375 -3.421875 C 3.984375 -3.679688 3.910156 -3.890625 3.765625 -4.046875 C 3.617188 -4.210938 3.425781 -4.296875 3.1875 -4.296875 Z M 3.1875 -4.296875 "/></g></g><g transform="translate(564.816516, 512.593214)"><g><path d="M 4.109375 0 L 4.109375 -2.984375 C 4.109375 -3.347656 4.054688 -3.625 3.953125 -3.8125 C 3.847656 -4 3.679688 -4.09375 3.453125 -4.09375 C 3.128906 -4.09375 2.894531 -3.960938 2.75 -3.703125 C 2.613281 -3.453125 2.546875 -3.019531 2.546875 -2.40625 L 2.546875 0 L 0.65625 0 L 0.65625 -5.484375 L 2.078125 -5.484375 L 2.3125 -4.796875 L 2.421875 -4.796875 C 2.585938 -5.054688 2.8125 -5.25 3.09375 -5.375 C 3.382812 -5.507812 3.710938 -5.578125 4.078125 -5.578125 C 4.679688 -5.578125 5.148438 -5.398438 5.484375 -5.046875 C 5.828125 -4.691406 6 -4.195312 6 -3.5625 L 6 0 Z M 4.109375 0 "/></g></g><g transform="translate(571.450444, 512.593214)"><g><path d="M 3.34375 -1.390625 C 3.59375 -1.390625 3.894531 -1.457031 4.25 -1.59375 L 4.25 -0.203125 C 4 -0.0976562 3.753906 -0.0234375 3.515625 0.015625 C 3.285156 0.0664062 3.019531 0.09375 2.71875 0.09375 C 2.082031 0.09375 1.625 -0.0625 1.34375 -0.375 C 1.0625 -0.6875 0.921875 -1.160156 0.921875 -1.796875 L 0.921875 -4.0625 L 0.25 -4.0625 L 0.25 -4.828125 L 1.09375 -5.421875 L 1.59375 -6.578125 L 2.828125 -6.578125 L 2.828125 -5.484375 L 4.171875 -5.484375 L 4.171875 -4.0625 L 2.828125 -4.0625 L 2.828125 -1.9375 C 2.828125 -1.570312 3 -1.390625 3.34375 -1.390625 Z M 3.34375 -1.390625 "/></g></g><g transform="translate(576.005226, 512.593214)"><g><path d="M 5.890625 -2.75 C 5.890625 -1.851562 5.644531 -1.15625 5.15625 -0.65625 C 4.675781 -0.15625 4.003906 0.09375 3.140625 0.09375 C 2.304688 0.09375 1.644531 -0.160156 1.15625 -0.671875 C 0.664062 -1.179688 0.421875 -1.875 0.421875 -2.75 C 0.421875 -3.644531 0.660156 -4.335938 1.140625 -4.828125 C 1.617188 -5.328125 2.296875 -5.578125 3.171875 -5.578125 C 3.703125 -5.578125 4.175781 -5.460938 4.59375 -5.234375 C 5.007812 -5.003906 5.328125 -4.675781 5.546875 -4.25 C 5.773438 -3.820312 5.890625 -3.320312 5.890625 -2.75 Z M 2.34375 -2.75 C 2.34375 -2.28125 2.40625 -1.921875 2.53125 -1.671875 C 2.65625 -1.429688 2.863281 -1.3125 3.15625 -1.3125 C 3.445312 -1.3125 3.65625 -1.429688 3.78125 -1.671875 C 3.90625 -1.921875 3.96875 -2.28125 3.96875 -2.75 C 3.96875 -3.21875 3.90625 -3.570312 3.78125 -3.8125 C 3.65625 -4.050781 3.445312 -4.171875 3.15625 -4.171875 C 2.863281 -4.171875 2.65625 -4.050781 2.53125 -3.8125 C 2.40625 -3.570312 2.34375 -3.21875 2.34375 -2.75 Z M 2.34375 -2.75 "/></g></g><g transform="translate(582.315195, 512.593214)"><g/></g><g transform="translate(584.887535, 512.593214)"><g><path d="M 3.21875 -4.640625 C 3.625 -4.640625 3.988281 -4.539062 4.3125 -4.34375 C 4.632812 -4.15625 4.882812 -3.890625 5.0625 -3.546875 C 5.25 -3.203125 5.34375 -2.804688 5.34375 -2.359375 C 5.34375 -1.566406 5.101562 -0.957031 4.625 -0.53125 C 4.15625 -0.113281 3.441406 0.09375 2.484375 0.09375 C 1.648438 0.09375 0.972656 -0.03125 0.453125 -0.28125 L 0.453125 -1.859375 C 0.734375 -1.722656 1.050781 -1.613281 1.40625 -1.53125 C 1.757812 -1.445312 2.0625 -1.40625 2.3125 -1.40625 C 2.664062 -1.40625 2.9375 -1.476562 3.125 -1.625 C 3.320312 -1.78125 3.421875 -2.003906 3.421875 -2.296875 C 3.421875 -2.566406 3.320312 -2.773438 3.125 -2.921875 C 2.9375 -3.078125 2.644531 -3.15625 2.25 -3.15625 C 1.945312 -3.15625 1.625 -3.097656 1.28125 -2.984375 L 0.578125 -3.34375 L 0.84375 -7.078125 L 4.875 -7.078125 L 4.875 -5.484375 L 2.46875 -5.484375 L 2.375 -4.546875 C 2.625 -4.597656 2.800781 -4.625 2.90625 -4.625 C 3.019531 -4.632812 3.125 -4.640625 3.21875 -4.640625 Z M 3.21875 -4.640625 "/></g></g></g><g clip-path="url(#29f0aa30eb)"><g mask="url(#0bf5a74818)"><g transform="matrix(1, 0, 0, 1, 215, 124)"><g clip-path="url(#617c7d4a56)"><g clip-path="url(#3446e2d351)"><path fill="#0083c4" d="M 0.0078125 0.867188 L 381.566406 0.867188 L 381.566406 374.6875 L 0.0078125 374.6875 Z M 0.0078125 0.867188 " fill-opacity="1" fill-rule="nonzero"/></g></g></g></g></g><g clip-path="url(#c357483e60)"><g mask="url(#6c3f71a653)"><g transform="matrix(1, 0, 0, 1, 215, 199)"><g clip-path="url(#6fe76af1df)"><g clip-path="url(#f937f6be09)"><path fill="#0083c4" d="M 0.0078125 -74.132812 L 381.566406 -74.132812 L 381.566406 299.6875 L 0.0078125 299.6875 Z M 0.0078125 -74.132812 " fill-opacity="1" fill-rule="nonzero"/></g></g></g></g></g><g clip-path="url(#3b12128fbc)"><g mask="url(#4c6114e24b)"><g transform="matrix(1, 0, 0, 1, 215, 274)"><g clip-path="url(#88d243e834)"><g clip-path="url(#bc0d94ae07)"><path fill="#0083c4" d="M 0.0078125 -149.132812 L 381.566406 -149.132812 L 381.566406 224.6875 L 0.0078125 224.6875 Z M 0.0078125 -149.132812 " fill-opacity="1" fill-rule="nonzero"/></g></g></g></g></g><g clip-path="url(#1027711e83)"><g mask="url(#91e90f2996)"><g transform="matrix(1, 0, 0, 1, 215, 348)"><g clip-path="url(#56d141b0d5)"><g clip-path="url(#f791162d7a)"><path fill="#0083c4" d="M 0.0078125 -223.132812 L 381.566406 -223.132812 L 381.566406 150.6875 L 0.0078125 150.6875 Z M 0.0078125 -223.132812 " fill-opacity="1" fill-rule="nonzero"/></g></g></g></g></g><g clip-path="url(#d61ec2f285)"><g mask="url(#b4130756c0)"><g transform="matrix(1, 0, 0, 1, 215, 423)"><g clip-path="url(#9dd2d6a4c8)"><g clip-path="url(#58f1f57355)"><path fill="#0083c4" d="M 0.0078125 -298.132812 L 381.566406 -298.132812 L 381.566406 75.6875 L 0.0078125 75.6875 Z M 0.0078125 -298.132812 " fill-opacity="1" fill-rule="nonzero"/></g></g></g></g></g><g clip-path="url(#2a033ef6ae)"><g mask="url(#ed73e7cb49)"><g transform="matrix(1, 0, 0, 1, 215, 498)"><g clip-path="url(#2a6c5cf81f)"><g clip-path="url(#af2a340006)"><path fill="#0083c4" d="M 0.0078125 -373.132812 L 381.566406 -373.132812 L 381.566406 0.6875 L 0.0078125 0.6875 Z M 0.0078125 -373.132812 " fill-opacity="1" fill-rule="nonzero"/></g></g></g></g></g><g fill="#0083c4" fill-opacity="1"><g transform="translate(195.880981, 128.424511)"><g><path d="M 3.21875 -4.640625 C 3.625 -4.640625 3.988281 -4.539062 4.3125 -4.34375 C 4.632812 -4.15625 4.882812 -3.890625 5.0625 -3.546875 C 5.25 -3.203125 5.34375 -2.804688 5.34375 -2.359375 C 5.34375 -1.566406 5.101562 -0.957031 4.625 -0.53125 C 4.15625 -0.113281 3.441406 0.09375 2.484375 0.09375 C 1.648438 0.09375 0.972656 -0.03125 0.453125 -0.28125 L 0.453125 -1.859375 C 0.734375 -1.722656 1.050781 -1.613281 1.40625 -1.53125 C 1.757812 -1.445312 2.0625 -1.40625 2.3125 -1.40625 C 2.664062 -1.40625 2.9375 -1.476562 3.125 -1.625 C 3.320312 -1.78125 3.421875 -2.003906 3.421875 -2.296875 C 3.421875 -2.566406 3.320312 -2.773438 3.125 -2.921875 C 2.9375 -3.078125 2.644531 -3.15625 2.25 -3.15625 C 1.945312 -3.15625 1.625 -3.097656 1.28125 -2.984375 L 0.578125 -3.34375 L 0.84375 -7.078125 L 4.875 -7.078125 L 4.875 -5.484375 L 2.46875 -5.484375 L 2.375 -4.546875 C 2.625 -4.597656 2.800781 -4.625 2.90625 -4.625 C 3.019531 -4.632812 3.125 -4.640625 3.21875 -4.640625 Z M 3.21875 -4.640625 "/></g></g><g transform="translate(201.683251, 128.424511)"><g><path d="M 5.453125 -3.53125 C 5.453125 -2.28125 5.242188 -1.363281 4.828125 -0.78125 C 4.410156 -0.195312 3.769531 0.09375 2.90625 0.09375 C 2.0625 0.09375 1.421875 -0.207031 0.984375 -0.8125 C 0.554688 -1.425781 0.34375 -2.332031 0.34375 -3.53125 C 0.34375 -4.78125 0.550781 -5.695312 0.96875 -6.28125 C 1.394531 -6.875 2.039062 -7.171875 2.90625 -7.171875 C 3.75 -7.171875 4.382812 -6.863281 4.8125 -6.25 C 5.238281 -5.644531 5.453125 -4.738281 5.453125 -3.53125 Z M 2.25 -3.53125 C 2.25 -2.726562 2.296875 -2.175781 2.390625 -1.875 C 2.492188 -1.570312 2.664062 -1.421875 2.90625 -1.421875 C 3.144531 -1.421875 3.3125 -1.578125 3.40625 -1.890625 C 3.507812 -2.203125 3.5625 -2.75 3.5625 -3.53125 C 3.5625 -4.3125 3.507812 -4.859375 3.40625 -5.171875 C 3.300781 -5.484375 3.132812 -5.640625 2.90625 -5.640625 C 2.664062 -5.640625 2.492188 -5.488281 2.390625 -5.1875 C 2.296875 -4.882812 2.25 -4.332031 2.25 -3.53125 Z M 2.25 -3.53125 "/></g></g></g><g fill="#0083c4" fill-opacity="1"><g transform="translate(207.485521, 128.424511)"><g/></g></g><g fill="#0083c4" fill-opacity="1"><g transform="translate(195.880981, 203.104431)"><g><path d="M 5.65625 -1.375 L 4.875 -1.375 L 4.875 0 L 2.984375 0 L 2.984375 -1.375 L 0.171875 -1.375 L 0.171875 -2.765625 L 3.109375 -7.078125 L 4.875 -7.078125 L 4.875 -2.796875 L 5.65625 -2.796875 Z M 2.984375 -2.796875 L 2.984375 -3.625 C 2.984375 -3.769531 2.988281 -3.972656 3 -4.234375 C 3.007812 -4.503906 3.019531 -4.644531 3.03125 -4.65625 L 2.984375 -4.65625 C 2.867188 -4.40625 2.742188 -4.175781 2.609375 -3.96875 L 1.828125 -2.796875 Z M 2.984375 -2.796875 "/></g></g><g transform="translate(201.683251, 203.104431)"><g><path d="M 5.453125 -3.53125 C 5.453125 -2.28125 5.242188 -1.363281 4.828125 -0.78125 C 4.410156 -0.195312 3.769531 0.09375 2.90625 0.09375 C 2.0625 0.09375 1.421875 -0.207031 0.984375 -0.8125 C 0.554688 -1.425781 0.34375 -2.332031 0.34375 -3.53125 C 0.34375 -4.78125 0.550781 -5.695312 0.96875 -6.28125 C 1.394531 -6.875 2.039062 -7.171875 2.90625 -7.171875 C 3.75 -7.171875 4.382812 -6.863281 4.8125 -6.25 C 5.238281 -5.644531 5.453125 -4.738281 5.453125 -3.53125 Z M 2.25 -3.53125 C 2.25 -2.726562 2.296875 -2.175781 2.390625 -1.875 C 2.492188 -1.570312 2.664062 -1.421875 2.90625 -1.421875 C 3.144531 -1.421875 3.3125 -1.578125 3.40625 -1.890625 C 3.507812 -2.203125 3.5625 -2.75 3.5625 -3.53125 C 3.5625 -4.3125 3.507812 -4.859375 3.40625 -5.171875 C 3.300781 -5.484375 3.132812 -5.640625 2.90625 -5.640625 C 2.664062 -5.640625 2.492188 -5.488281 2.390625 -5.1875 C 2.296875 -4.882812 2.25 -4.332031 2.25 -3.53125 Z M 2.25 -3.53125 "/></g></g></g><g fill="#0083c4" fill-opacity="1"><g transform="translate(207.485521, 203.104431)"><g/></g></g><g fill="#0083c4" fill-opacity="1"><g transform="translate(195.880981, 277.784404)"><g><path d="M 5.1875 -5.53125 C 5.1875 -5.09375 5.050781 -4.71875 4.78125 -4.40625 C 4.519531 -4.09375 4.132812 -3.863281 3.625 -3.71875 L 3.625 -3.703125 C 4.800781 -3.546875 5.390625 -2.984375 5.390625 -2.015625 C 5.390625 -1.359375 5.128906 -0.84375 4.609375 -0.46875 C 4.085938 -0.09375 3.367188 0.09375 2.453125 0.09375 C 2.066406 0.09375 1.710938 0.0664062 1.390625 0.015625 C 1.066406 -0.0351562 0.71875 -0.132812 0.34375 -0.28125 L 0.34375 -1.875 C 0.644531 -1.71875 0.957031 -1.597656 1.28125 -1.515625 C 1.601562 -1.441406 1.898438 -1.40625 2.171875 -1.40625 C 2.585938 -1.40625 2.890625 -1.460938 3.078125 -1.578125 C 3.273438 -1.703125 3.375 -1.890625 3.375 -2.140625 C 3.375 -2.328125 3.320312 -2.472656 3.21875 -2.578125 C 3.125 -2.691406 2.960938 -2.773438 2.734375 -2.828125 C 2.515625 -2.878906 2.226562 -2.90625 1.875 -2.90625 L 1.4375 -2.90625 L 1.4375 -4.34375 L 1.875 -4.34375 C 2.851562 -4.34375 3.34375 -4.585938 3.34375 -5.078125 C 3.34375 -5.265625 3.269531 -5.40625 3.125 -5.5 C 2.976562 -5.59375 2.785156 -5.640625 2.546875 -5.640625 C 2.085938 -5.640625 1.617188 -5.488281 1.140625 -5.1875 L 0.34375 -6.453125 C 0.71875 -6.710938 1.097656 -6.894531 1.484375 -7 C 1.878906 -7.113281 2.332031 -7.171875 2.84375 -7.171875 C 3.570312 -7.171875 4.144531 -7.023438 4.5625 -6.734375 C 4.976562 -6.441406 5.1875 -6.039062 5.1875 -5.53125 Z M 5.1875 -5.53125 "/></g></g><g transform="translate(201.683251, 277.784404)"><g><path d="M 5.453125 -3.53125 C 5.453125 -2.28125 5.242188 -1.363281 4.828125 -0.78125 C 4.410156 -0.195312 3.769531 0.09375 2.90625 0.09375 C 2.0625 0.09375 1.421875 -0.207031 0.984375 -0.8125 C 0.554688 -1.425781 0.34375 -2.332031 0.34375 -3.53125 C 0.34375 -4.78125 0.550781 -5.695312 0.96875 -6.28125 C 1.394531 -6.875 2.039062 -7.171875 2.90625 -7.171875 C 3.75 -7.171875 4.382812 -6.863281 4.8125 -6.25 C 5.238281 -5.644531 5.453125 -4.738281 5.453125 -3.53125 Z M 2.25 -3.53125 C 2.25 -2.726562 2.296875 -2.175781 2.390625 -1.875 C 2.492188 -1.570312 2.664062 -1.421875 2.90625 -1.421875 C 3.144531 -1.421875 3.3125 -1.578125 3.40625 -1.890625 C 3.507812 -2.203125 3.5625 -2.75 3.5625 -3.53125 C 3.5625 -4.3125 3.507812 -4.859375 3.40625 -5.171875 C 3.300781 -5.484375 3.132812 -5.640625 2.90625 -5.640625 C 2.664062 -5.640625 2.492188 -5.488281 2.390625 -5.1875 C 2.296875 -4.882812 2.25 -4.332031 2.25 -3.53125 Z M 2.25 -3.53125 "/></g></g></g><g fill="#0083c4" fill-opacity="1"><g transform="translate(207.485521, 277.784404)"><g/></g></g><g fill="#0083c4" fill-opacity="1"><g transform="translate(195.880981, 352.464303)"><g><path d="M 5.421875 0 L 0.296875 0 L 0.296875 -1.25 L 2.015625 -3 C 2.515625 -3.519531 2.835938 -3.875 2.984375 -4.0625 C 3.140625 -4.25 3.242188 -4.410156 3.296875 -4.546875 C 3.359375 -4.679688 3.390625 -4.820312 3.390625 -4.96875 C 3.390625 -5.15625 3.328125 -5.300781 3.203125 -5.40625 C 3.085938 -5.507812 2.925781 -5.5625 2.71875 -5.5625 C 2.488281 -5.5625 2.257812 -5.5 2.03125 -5.375 C 1.8125 -5.25 1.554688 -5.0625 1.265625 -4.8125 L 0.21875 -6.046875 C 0.582031 -6.367188 0.890625 -6.597656 1.140625 -6.734375 C 1.390625 -6.878906 1.660156 -6.988281 1.953125 -7.0625 C 2.242188 -7.132812 2.570312 -7.171875 2.9375 -7.171875 C 3.394531 -7.171875 3.800781 -7.085938 4.15625 -6.921875 C 4.519531 -6.765625 4.800781 -6.535156 5 -6.234375 C 5.195312 -5.941406 5.296875 -5.609375 5.296875 -5.234375 C 5.296875 -4.960938 5.257812 -4.707031 5.1875 -4.46875 C 5.113281 -4.226562 5.003906 -3.992188 4.859375 -3.765625 C 4.710938 -3.546875 4.519531 -3.3125 4.28125 -3.0625 C 4.039062 -2.8125 3.53125 -2.332031 2.75 -1.625 L 2.75 -1.578125 L 5.421875 -1.578125 Z M 5.421875 0 "/></g></g><g transform="translate(201.683251, 352.464303)"><g><path d="M 5.453125 -3.53125 C 5.453125 -2.28125 5.242188 -1.363281 4.828125 -0.78125 C 4.410156 -0.195312 3.769531 0.09375 2.90625 0.09375 C 2.0625 0.09375 1.421875 -0.207031 0.984375 -0.8125 C 0.554688 -1.425781 0.34375 -2.332031 0.34375 -3.53125 C 0.34375 -4.78125 0.550781 -5.695312 0.96875 -6.28125 C 1.394531 -6.875 2.039062 -7.171875 2.90625 -7.171875 C 3.75 -7.171875 4.382812 -6.863281 4.8125 -6.25 C 5.238281 -5.644531 5.453125 -4.738281 5.453125 -3.53125 Z M 2.25 -3.53125 C 2.25 -2.726562 2.296875 -2.175781 2.390625 -1.875 C 2.492188 -1.570312 2.664062 -1.421875 2.90625 -1.421875 C 3.144531 -1.421875 3.3125 -1.578125 3.40625 -1.890625 C 3.507812 -2.203125 3.5625 -2.75 3.5625 -3.53125 C 3.5625 -4.3125 3.507812 -4.859375 3.40625 -5.171875 C 3.300781 -5.484375 3.132812 -5.640625 2.90625 -5.640625 C 2.664062 -5.640625 2.492188 -5.488281 2.390625 -5.1875 C 2.296875 -4.882812 2.25 -4.332031 2.25 -3.53125 Z M 2.25 -3.53125 "/></g></g></g><g fill="#0083c4" fill-opacity="1"><g transform="translate(207.485521, 352.464303)"><g/></g></g><g fill="#0083c4" fill-opacity="1"><g transform="translate(195.880981, 427.144266)"><g><path d="M 4.5625 0 L 2.609375 0 L 2.609375 -3.75 C 2.609375 -4.195312 2.617188 -4.609375 2.640625 -4.984375 C 2.523438 -4.847656 2.378906 -4.695312 2.203125 -4.53125 L 1.390625 -3.875 L 0.40625 -5.09375 L 2.828125 -7.078125 L 4.5625 -7.078125 Z M 4.5625 0 "/></g></g><g transform="translate(201.683251, 427.144266)"><g><path d="M 5.453125 -3.53125 C 5.453125 -2.28125 5.242188 -1.363281 4.828125 -0.78125 C 4.410156 -0.195312 3.769531 0.09375 2.90625 0.09375 C 2.0625 0.09375 1.421875 -0.207031 0.984375 -0.8125 C 0.554688 -1.425781 0.34375 -2.332031 0.34375 -3.53125 C 0.34375 -4.78125 0.550781 -5.695312 0.96875 -6.28125 C 1.394531 -6.875 2.039062 -7.171875 2.90625 -7.171875 C 3.75 -7.171875 4.382812 -6.863281 4.8125 -6.25 C 5.238281 -5.644531 5.453125 -4.738281 5.453125 -3.53125 Z M 2.25 -3.53125 C 2.25 -2.726562 2.296875 -2.175781 2.390625 -1.875 C 2.492188 -1.570312 2.664062 -1.421875 2.90625 -1.421875 C 3.144531 -1.421875 3.3125 -1.578125 3.40625 -1.890625 C 3.507812 -2.203125 3.5625 -2.75 3.5625 -3.53125 C 3.5625 -4.3125 3.507812 -4.859375 3.40625 -5.171875 C 3.300781 -5.484375 3.132812 -5.640625 2.90625 -5.640625 C 2.664062 -5.640625 2.492188 -5.488281 2.390625 -5.1875 C 2.296875 -4.882812 2.25 -4.332031 2.25 -3.53125 Z M 2.25 -3.53125 "/></g></g></g><g fill="#0083c4" fill-opacity="1"><g transform="translate(207.485521, 427.144266)"><g/></g></g><g fill="#0083c4" fill-opacity="1"><g transform="translate(201.683254, 501.824151)"><g><path d="M 5.453125 -3.53125 C 5.453125 -2.28125 5.242188 -1.363281 4.828125 -0.78125 C 4.410156 -0.195312 3.769531 0.09375 2.90625 0.09375 C 2.0625 0.09375 1.421875 -0.207031 0.984375 -0.8125 C 0.554688 -1.425781 0.34375 -2.332031 0.34375 -3.53125 C 0.34375 -4.78125 0.550781 -5.695312 0.96875 -6.28125 C 1.394531 -6.875 2.039062 -7.171875 2.90625 -7.171875 C 3.75 -7.171875 4.382812 -6.863281 4.8125 -6.25 C 5.238281 -5.644531 5.453125 -4.738281 5.453125 -3.53125 Z M 2.25 -3.53125 C 2.25 -2.726562 2.296875 -2.175781 2.390625 -1.875 C 2.492188 -1.570312 2.664062 -1.421875 2.90625 -1.421875 C 3.144531 -1.421875 3.3125 -1.578125 3.40625 -1.890625 C 3.507812 -2.203125 3.5625 -2.75 3.5625 -3.53125 C 3.5625 -4.3125 3.507812 -4.859375 3.40625 -5.171875 C 3.300781 -5.484375 3.132812 -5.640625 2.90625 -5.640625 C 2.664062 -5.640625 2.492188 -5.488281 2.390625 -5.1875 C 2.296875 -4.882812 2.25 -4.332031 2.25 -3.53125 Z M 2.25 -3.53125 "/></g></g></g><g fill="#0083c4" fill-opacity="1"><g transform="translate(207.485524, 501.824151)"><g/></g></g><g clip-path="url(#06e1b66b40)"><g clip-path="url(#23b3c54bbc)"><path fill="#00a3c8" d="M 215.007812 124.867188 L 596.566406 124.867188 L 596.566406 498.378906 L 215.007812 498.378906 Z M 215.007812 124.867188 " fill-opacity="1" fill-rule="nonzero"/></g></g><g clip-path="url(#0b5b17c913)"><g clip-path="url(#73a263601c)"><path fill="#00a3c8" d="M 215.007812 124.867188 L 596.566406 124.867188 L 596.566406 498.378906 L 215.007812 498.378906 Z M 215.007812 124.867188 " fill-opacity="1" fill-rule="nonzero"/></g></g><g clip-path="url(#015954c17c)"><g clip-path="url(#5cad0bc3fd)"><path fill="#00a3c8" d="M 215.007812 124.867188 L 596.566406 124.867188 L 596.566406 498.378906 L 215.007812 498.378906 Z M 215.007812 124.867188 " fill-opacity="1" fill-rule="nonzero"/></g></g><g clip-path="url(#1c7bd22d18)"><g clip-path="url(#4535973040)"><path fill="#00a3c8" d="M 215.007812 124.867188 L 596.566406 124.867188 L 596.566406 498.378906 L 215.007812 498.378906 Z M 215.007812 124.867188 " fill-opacity="1" fill-rule="nonzero"/></g></g><g clip-path="url(#de0d8e8f59)"><g clip-path="url(#48037d14be)"><path fill="#00a3c8" d="M 215.007812 124.867188 L 596.566406 124.867188 L 596.566406 498.378906 L 215.007812 498.378906 Z M 215.007812 124.867188 " fill-opacity="1" fill-rule="nonzero"/></g></g><g clip-path="url(#bc13ab90b5)"><path fill="#41b8d5" d="M 215.007812 124.867188 L 596.566406 124.867188 L 596.566406 498.378906 L 215.007812 498.378906 Z M 215.007812 124.867188 " fill-opacity="1" fill-rule="nonzero"/></g><g clip-path="url(#3eb2e25238)"><path fill="#41b8d5" d="M 215.007812 124.867188 L 596.566406 124.867188 L 596.566406 498.378906 L 215.007812 498.378906 Z M 215.007812 124.867188 " fill-opacity="1" fill-rule="nonzero"/></g><g clip-path="url(#473203c4a2)"><path fill="#41b8d5" d="M 215.007812 124.867188 L 596.566406 124.867188 L 596.566406 498.378906 L 215.007812 498.378906 Z M 215.007812 124.867188 " fill-opacity="1" fill-rule="nonzero"/></g><g clip-path="url(#586f19c9be)"><path fill="#41b8d5" d="M 215.007812 124.867188 L 596.566406 124.867188 L 596.566406 498.378906 L 215.007812 498.378906 Z M 215.007812 124.867188 " fill-opacity="1" fill-rule="nonzero"/></g><g clip-path="url(#17259e08e1)"><path fill="#41b8d5" d="M 215.007812 124.867188 L 596.566406 124.867188 L 596.566406 498.378906 L 215.007812 498.378906 Z M 215.007812 124.867188 " fill-opacity="1" fill-rule="nonzero"/></g><g clip-path="url(#8d313919d4)"><path fill="#6ce5e8" d="M 215.007812 124.867188 L 596.566406 124.867188 L 596.566406 498.378906 L 215.007812 498.378906 Z M 215.007812 124.867188 " fill-opacity="1" fill-rule="nonzero"/></g><g clip-path="url(#372b3e2129)"><path fill="#6ce5e8" d="M 215.007812 124.867188 L 596.566406 124.867188 L 596.566406 498.378906 L 215.007812 498.378906 Z M 215.007812 124.867188 " fill-opacity="1" fill-rule="nonzero"/></g><g clip-path="url(#537fb5a6ec)"><path fill="#6ce5e8" d="M 215.007812 124.867188 L 596.566406 124.867188 L 596.566406 498.378906 L 215.007812 498.378906 Z M 215.007812 124.867188 " fill-opacity="1" fill-rule="nonzero"/></g><g clip-path="url(#4ae5620cee)"><path fill="#6ce5e8" d="M 215.007812 124.867188 L 596.566406 124.867188 L 596.566406 498.378906 L 215.007812 498.378906 Z M 215.007812 124.867188 " fill-opacity="1" fill-rule="nonzero"/></g><g fill="#ffffff" fill-opacity="1"><g transform="translate(195.929437, 654.180423)"><g><path d="M 91.140625 0 L 16.34375 0 L 16.34375 -129.875 L 91.140625 -129.875 L 91.140625 -107.3125 L 43.875 -107.3125 L 43.875 -78.796875 L 87.859375 -78.796875 L 87.859375 -56.234375 L 43.875 -56.234375 L 43.875 -22.734375 L 91.140625 -22.734375 Z M 91.140625 0 "/></g></g></g><g fill="#ffffff" fill-opacity="1"><g transform="translate(297.807348, 654.180423)"><g><path d="M 93 -36.0625 C 93 -24.332031 88.78125 -15.09375 80.34375 -8.34375 C 71.90625 -1.59375 60.164062 1.78125 45.125 1.78125 C 31.269531 1.78125 19.007812 -0.828125 8.34375 -6.046875 L 8.34375 -31.625 C 17.113281 -27.71875 24.53125 -24.960938 30.59375 -23.359375 C 36.664062 -21.765625 42.21875 -20.96875 47.25 -20.96875 C 53.289062 -20.96875 57.925781 -22.117188 61.15625 -24.421875 C 64.382812 -26.734375 66 -30.171875 66 -34.734375 C 66 -37.273438 65.285156 -39.535156 63.859375 -41.515625 C 62.441406 -43.503906 60.351562 -45.414062 57.59375 -47.25 C 54.84375 -49.09375 49.234375 -52.023438 40.765625 -56.046875 C 32.835938 -59.773438 26.890625 -63.359375 22.921875 -66.796875 C 18.953125 -70.234375 15.78125 -74.226562 13.40625 -78.78125 C 11.039062 -83.34375 9.859375 -88.675781 9.859375 -94.78125 C 9.859375 -106.269531 13.75 -115.300781 21.53125 -121.875 C 29.320312 -128.445312 40.085938 -131.734375 53.828125 -131.734375 C 60.578125 -131.734375 67.015625 -130.929688 73.140625 -129.328125 C 79.273438 -127.734375 85.6875 -125.484375 92.375 -122.578125 L 83.5 -101.171875 C 76.570312 -104.015625 70.84375 -106 66.3125 -107.125 C 61.78125 -108.25 57.320312 -108.8125 52.9375 -108.8125 C 47.726562 -108.8125 43.734375 -107.597656 40.953125 -105.171875 C 38.171875 -102.742188 36.78125 -99.578125 36.78125 -95.671875 C 36.78125 -93.242188 37.34375 -91.125 38.46875 -89.3125 C 39.59375 -87.507812 41.382812 -85.765625 43.84375 -84.078125 C 46.300781 -82.390625 52.117188 -79.351562 61.296875 -74.96875 C 73.429688 -69.164062 81.75 -63.347656 86.25 -57.515625 C 90.75 -51.679688 93 -44.53125 93 -36.0625 Z M 93 -36.0625 "/></g></g></g><g fill="#ffffff" fill-opacity="1"><g transform="translate(397.997657, 654.180423)"><g><path d="M 91.140625 0 L 16.34375 0 L 16.34375 -129.875 L 91.140625 -129.875 L 91.140625 -107.3125 L 43.875 -107.3125 L 43.875 -78.796875 L 87.859375 -78.796875 L 87.859375 -56.234375 L 43.875 -56.234375 L 43.875 -22.734375 L 91.140625 -22.734375 Z M 91.140625 0 "/></g></g></g><g fill="#ffffff" fill-opacity="1"><g transform="translate(499.875567, 654.180423)"><g><path d="M 43.875 -68.75 L 52.9375 -68.75 C 61.40625 -68.75 67.742188 -70.421875 71.953125 -73.765625 C 76.160156 -77.117188 78.265625 -81.992188 78.265625 -88.390625 C 78.265625 -94.835938 76.5 -99.601562 72.96875 -102.6875 C 69.445312 -105.769531 63.925781 -107.3125 56.40625 -107.3125 L 43.875 -107.3125 Z M 106.0625 -89.359375 C 106.0625 -75.378906 101.691406 -64.6875 92.953125 -57.28125 C 84.222656 -49.882812 71.804688 -46.1875 55.703125 -46.1875 L 43.875 -46.1875 L 43.875 0 L 16.34375 0 L 16.34375 -129.875 L 57.828125 -129.875 C 73.578125 -129.875 85.550781 -126.484375 93.75 -119.703125 C 101.957031 -112.921875 106.0625 -102.804688 106.0625 -89.359375 Z M 106.0625 -89.359375 "/></g></g></g></svg>